<svg width="20" height="20" viewBox="0 0 20 20" fill="none" xmlns="http://www.w3.org/2000/svg">
<path fill-rule="evenodd" clip-rule="evenodd" d="M14.4444 0H5.55556C2.48731 0 0 2.48731 0 5.55556V14.4444C0 17.5127 2.48731 20 5.55556 20H14.4444C17.5127 20 20 17.5127 20 14.4444V5.55556C20 2.48731 17.5127 0 14.4444 0ZM18.0555 14.4458C18.0494 16.4377 16.4362 18.0509 14.4444 18.057H5.5555C3.56366 18.0509 1.95048 16.4377 1.94438 14.4458V5.55693C1.95048 3.56509 3.56366 1.9519 5.5555 1.9458H14.4444C16.4362 1.9519 18.0494 3.56509 18.0555 5.55693V14.4458ZM15.2778 5.83411C15.8914 5.83411 16.3889 5.33648 16.3889 4.72261C16.3889 4.10875 15.8914 3.61111 15.2778 3.61111C14.6641 3.61111 14.1667 4.10875 14.1667 4.72261C14.1667 5.33648 14.6641 5.83411 15.2778 5.83411ZM9.99999 5.00001C7.23857 5.00001 5 7.2386 5 10C5 12.7615 7.23857 15.0001 9.99999 15.0001C12.7614 15.0001 15 12.7615 15 10C15.0029 8.67304 14.4771 7.39955 13.5388 6.46122C12.6005 5.52289 11.327 4.99705 9.99999 5.00001ZM6.94438 10.0001C6.94438 11.6876 8.3124 13.0557 9.99995 13.0557C11.6875 13.0557 13.0555 11.6876 13.0555 10.0001C13.0555 8.31249 11.6875 6.94444 9.99995 6.94444C8.3124 6.94444 6.94438 8.31249 6.94438 10.0001Z" fill="white"/>
</svg>
